<?xml version="1.0" encoding="UTF-8"?>
<!DOCTYPE svg PUBLIC "-//W3C//DTD SVG 1.1//EN" "http://www.w3.org/Graphics/SVG/1.1/DTD/svg11.dtd">
<!-- Creator: CorelDRAW 2021 (64-Bit) -->
<svg xmlns="http://www.w3.org/2000/svg" xml:space="preserve" width="48.882mm" height="48.882mm" version="1.1" style="shape-rendering:geometricPrecision; text-rendering:geometricPrecision; image-rendering:optimizeQuality; fill-rule:evenodd; clip-rule:evenodd"
viewBox="0 0 368.04 368.04"
 xmlns:xlink="http://www.w3.org/1999/xlink"
 xmlns:xodm="http://www.corel.com/coreldraw/odm/2003">
 <defs>
  <style type="text/css">
   <![CDATA[
    .str0 {stroke:#45656A;stroke-width:6.64;stroke-miterlimit:22.9256}
    .str3 {stroke:#45656A;stroke-width:3.98;stroke-miterlimit:22.9256}
    .str1 {stroke:#45656A;stroke-width:2.66;stroke-miterlimit:22.9256}
    .str2 {stroke:#45656A;stroke-width:0.57;stroke-miterlimit:22.9256}
    .fil1 {fill:none}
    .fil3 {fill:#45656A}
    .fil2 {fill:#45656A}
    .fil0 {fill:#C5CBCC}
    .fil4 {fill:#45656A;fill-rule:nonzero}
   ]]>
  </style>
 </defs>
 <g id="Warstwa_x0020_1">
  <metadata id="CorelCorpID_0Corel-Layer"/>
  <g id="_3125447305360">
   <path class="fil0 str0" d="M42.43 3.32l283.18 0c21.51,0 39.11,17.6 39.11,39.11l0 283.18c0,21.51 -17.6,39.11 -39.11,39.11l-283.18 0c-21.51,0 -39.11,-17.6 -39.11,-39.11l0 -283.18c0,-21.51 17.6,-39.11 39.11,-39.11z"/>
   <path class="fil1 str1" d="M288.1 253.86l-217.3 0 0 -0.71 217.3 0 0 0.71zm-225.64 0l-20.07 0 0 -0.71 20.07 0 0 0.71zm4.52 -131.04l0 126.52 -0.71 0 0 -126.52 0.71 0zm0 134.86l0 20.07 -0.71 0 0 -20.07 0.71 0zm14.14 -18.17l-11.3 11.3 -0.5 -0.5 11.3 -11.3 0.5 0.5zm-17.19 17.19l-11.3 11.3 -0.5 -0.5 11.3 -11.3 0.5 0.5zm-11.3 -17.69l11.3 11.3 -0.5 0.5 -11.3 -11.3 0.5 -0.5zm17.19 17.19l11.3 11.3 -0.5 0.5 -11.3 -11.3 0.5 -0.5z"/>
   <path class="fil2 str2" d="M89.73 102.62l-0.18 0.17c0.29,0.49 0.07,0.91 0.12,1.26l21.92 0.01c-0.96,11.66 2.89,3.67 -7.72,15.04l-11.6 11.55c-2.9,2.92 -4.71,4.6 -5.84,5.78l0 3.02c5.08,-4.68 20.18,-20.36 22.85,-23.19 3.83,-4.05 5.13,-2.14 4.29,-12.15 2.48,-0.23 6.49,0.66 8.24,-0.69 2.13,-1.65 8.28,-8.87 11.04,-11.48 0.54,-0.51 1.44,-1.27 1.51,-2.02 0.19,-1.93 0.31,1.65 -0.05,-0.5 -0.01,-0.07 -0.07,-0.19 -0.09,-0.25 -0.41,-1.63 -3.92,2.83 -4.34,3.29l-8.43 8.71c-1.34,1.48 -5.42,0.69 -7.86,0.89l0.06 -38.46 44.22 0.07c-3.2,3.94 -18.61,18.37 -19.88,20.13 -1.32,1.83 0.18,1.73 0.24,1.87 0.3,0.71 8.54,-7.99 8.72,-8.18 1.47,-1.53 2.72,-2.84 4.17,-4.39l8.77 -8.68c1.36,-1.26 4.82,-0.75 8.11,-0.75 4.06,-0 14.28,-0.51 17.62,0.13l-0.1 4.65 1.47 0.83c0.77,-1.09 0.63,-0.55 0.63,-2.44 0,-0.98 0.04,-2.28 -0.14,-3.06l7.84 -0.12 -0.12 15.8 1.99 0.02 0.11 -15.78 36.4 -0.03c-0.29,6.15 2.75,10.6 5.96,14.57 2.78,3.45 8.15,5.78 14.47,6.08 -0.05,0.85 -0.33,7.05 0.09,7.65 1.08,1.59 1.42,-0.63 0.66,0.94l0.3 0.05 1.03 -0.35 -0.09 -8.43c2.49,0.08 5.53,-0.89 7.57,-1.87 3.29,-1.58 4.42,-3.45 5.78,-3.99 2.84,1.99 5.61,5.43 8.19,7.91 1.32,1.27 2.57,2.52 3.79,3.77l0 -2.68 -10.56 -10.66c0.98,-1.81 2.17,-3.02 3.22,-5.52 0.89,-2.12 1.75,-4.9 1.61,-7.52l80.21 0.04 0 -1.99 -80.31 0.03c0.55,-9.78 -9.7,-19.94 -19.52,-19.66l0.02 -13.27c0.07,-3.9 -0.04,-2.24 -1.7,-3.07l0.02 -0.01c-0.9,1.62 -0.37,13.47 -0.38,16.25 -4.88,0.19 -9.37,1.71 -12.73,4.69 -1.2,1.07 -1.87,1.81 -2.95,2.78l-41.22 0c0.33,-3.1 0.53,-21.82 -0.33,-23.77l-1.28 0.03c-0.75,1.69 -0.64,20.96 -0.3,23.78l-7.83 -0.06c0.04,-0.27 0.57,-21.38 -0.04,-23.23l-2.01 -0.03 0.15 23.33c-1.75,-0.07 -12.4,-0.52 -13.65,0.36l-11.82 11.84 -44.03 0.03 32.5 -33.03c1.2,-1.2 1.54,-1.17 2.21,-2.6 -2.44,0.22 -2.2,-0.25 -3.55,1.27 -3.85,4.34 -11.38,11.66 -15.58,16.13l-18.02 18.16 0.04 -35.39 -1.88 -0.33c-0.71,2.13 -0.38,31.5 -0.19,35.87l-14.57 -0.09 0.12 2.16 14.33 -0.17c-2.56,1.98 -12.78,13.53 -14.08,13.94 -1.17,0.38 0.37,-0.75 -0.97,0.71l-1.39 1.23c4.91,-0.53 2.61,1.11 9.03,-5.64 1.48,-1.55 5.87,-6.55 7.47,-7.5l-0.01 35.64c-3.98,-0.3 -12.36,-0.07 -17.1,-0.06 -1.65,0 -2.89,-0.23 -4.16,0.31l-0.53 0.31zm216.8 18.98l-33.58 -0 0.03 2.03 33.55 0.02 0 -2.05zm-220.1 32.11c1.01,0.98 2.65,2.3 5.27,4.96 1.45,1.47 3.37,3.06 4.49,4.63 -2.25,1.86 -0.84,1.44 -4.94,1.41 -1.57,-0.01 -3.22,0.11 -4.82,0.03l0 1.73c2.17,-0.15 5.65,0.12 7.04,0.12 0.68,0.09 0.36,0.35 1.05,1.14 0.99,-1.17 2.71,-1.51 4.87,-1.12 1.44,0.26 8.36,8.12 9.53,9.41l9.59 9.43c1.05,1.09 1.98,2.95 3.89,1.93 -0.22,-1.93 -8.28,-9.28 -9.67,-10.73l-9.96 -10.08 12.54 -0.12c1.17,-0.33 0.25,0.02 0.76,-0.35 -0.29,-2.22 -2.88,-1.39 -8.34,-1.38 -1.59,0 -3.18,-0 -4.77,0.04 -3.47,0.1 -1.86,-0.25 -3.79,-1.16 1.03,-2.27 3.86,-4.22 5.59,-6.17l15.91 -16.47c0.33,-0.53 0.36,-0.42 0.28,-1.06 -0.28,-2.25 0.07,-0.39 -0.54,-1.14 -6.51,5.31 -13.7,14.53 -19.96,20.06 -1.35,1.19 -1.75,1.92 -2.87,2.79l-10.75 -10.46c-0.14,-0.13 -0.28,-0.24 -0.41,-0.35l0 2.91zm3.4 -51.76l0.1 -0.09 -0.1 0.09zm164.33 -19.65c-5.84,-0.12 -9.17,-1.78 -12.94,-5.58 -3.5,-3.53 -4.67,-6.89 -5.54,-13l18.44 0.04 -0.08 3.93 1.81 -0.1c0.4,-0.77 0.48,-1.57 0.18,-3.9l17.71 -0.07c-0.85,6.28 -2.32,9.21 -5.46,12.81 -2.45,2.81 -6.7,5.23 -12.13,5.87 -0.1,-2.17 -0.01,-4.38 -0.02,-6.57 -0.01,-5.34 0.4,-4.59 -2.05,-4.88l0.07 11.46zm2.07 -38.47c2.61,0.66 4.28,0.61 6.83,1.86 6.74,3.34 9.6,8.79 10.64,16.01l-17.56 0.07 0.1 -17.95zm-20.54 17.96c0.79,-6.18 2.65,-9.25 5.89,-12.39 2.61,-2.52 7.03,-5.73 12.49,-5.37l0.15 17.67 -18.53 0.09zm-48 -10.32l7.48 -0.03 0.1 10.27 -7.69 0.06 0.11 -10.29zm-24.27 9.51c0.27,-0.25 0.48,-0.44 0.8,-0.77l4.76 -4.76c3.63,-3.53 2.71,-3.94 5.66,-3.95l10.9 -0.08 0.13 10.26 -23.14 0.1 0.88 -0.8zm33.96 -9.48l39.62 -0.02c-0.15,0.64 -1.64,2.8 -2.21,4.45 -0.64,1.86 -0.97,3.84 -1.11,5.76l-36.36 0.01 0.06 -10.21z"/>
   <path class="fil1 str3" d="M55.51 39.96c-3.87,1.15 -2.8,6.96 -2.79,12.84 0.01,5.29 -0.01,10.57 0,15.86 0.01,7.47 1.97,6.3 9.33,6.32 20.64,0.05 18.71,2.74 18.71,-12.98 0,-23.58 1.67,-22.28 -9.83,-22.27 -2.83,0 -13.51,-0.34 -15.42,0.23z"/>
   <path class="fil2 str2" d="M230.18 324.65c0.45,0.96 8.96,9.19 10.8,10.99 0.64,0.62 1.34,1.3 1.89,1.92 1.22,1.39 0.49,1.84 0.44,2.41 -0.01,0.16 -0.07,0.19 -0.12,0.28 -1.17,-0.48 -8.08,-7.84 -9.69,-9.49 -1.66,-1.71 -3.12,-3.05 -4.79,-4.73 -1.16,-1.16 -1,-1.37 -3.26,-1.37l-19.68 0.01c-2.53,0 -5.08,-0.02 -7.61,0.01 -3.64,0.05 -3.59,-0.55 -5.25,-2.48 -2.37,-2.76 -4.93,-5.1 -7.47,-7.75 -4.47,-4.66 -2.93,-3.55 -11.37,-3.57l-44.6 -0.01 -0.03 25.45 -2.04 0.04 0.09 -25.49 -32.07 0.01c-6.75,-0 -13.12,-0.19 -19.77,0.18l-0.15 -2.24c16.77,0.37 35.46,-0.33 51.88,0.12l0 -22.75c-0,-0.48 -0.02,-2.85 0.38,-3.03l1.27 -0.06c0.63,0.97 0.47,2.23 0.46,3.4l-0.02 22.39 49.96 -0c-0.53,-1.62 -4.5,-4.93 -6.1,-6.44l-18.69 -19.13c1.07,-0.16 1.38,0.03 2.61,-0.37 1,1.68 32.12,32.79 34.91,35.55 4.92,4.88 3.55,4.19 7.59,4.16l25.53 0.04 -4.98 -5.07c-1.73,-1.8 -2.94,-3.11 -4.97,-4.86 -2.55,-2.2 -4.82,-4.99 -7.23,-7.35 -0.9,-0.88 -1.59,-1.38 -2.41,-2.34 -1.06,-1.23 -1.5,-1.63 -2.46,-2.62 -5.79,-5.96 -9.45,-9.15 -15.71,-15.98 -0.29,-0.31 -0.36,-0.37 -0.66,-0.68 -0.07,-0.08 -0.14,-0.81 -0.37,-0.4 -0.03,0.06 -0.13,-0.14 -0.19,-0.21 0.7,-0.03 0.98,-0.09 1.66,0.02 0.66,0.1 0.24,-0.25 1.2,0.57l13.08 12.93c5.2,5.22 9.68,9.86 14.7,14.79 0.94,0.93 10.43,10.85 11.12,11.08 0.6,0.2 45.5,0.39 54.63,-0.12 -0.39,1.56 -0.38,0.8 -0.02,2.24l-52.47 -0.03z"/>
   <path class="fil1 str3" d="M73.66 102.79l0.18 -0.17 0.1 -0.67 0.1 -0.09c1.32,-2.65 2.26,-5.16 3.51,-7.85 0.88,-1.89 1.06,-8.14 -0.3,-9.7 -1.84,-2.11 -11.29,-1.26 -15.84,-1.26 -1.26,-0 -2.77,-0.07 -3.97,0.39 -3.57,1.39 -2.33,8.52 -1.62,10.22l5.36 11.75c0.95,1.65 2.78,1.15 4.68,1.14 8.73,-0.04 4.67,-0.08 7.81,-3.75z"/>
   <path class="fil2 str2" d="M13.35 123.63c5.53,-0.14 17.69,-0.11 18.4,0.14l15.75 15.95c1.88,1.9 3.57,3.47 5.43,5.35 0.25,0.26 0.48,0.46 0.69,0.65l0 -2.75c-0.57,-0.53 -1.38,-1.22 -2.5,-2.44l-10.86 -11.35c-2.26,-2.37 -5.51,-4.78 -7.28,-7.5l-19.63 -0.1 0 2.06zm40.28 41.1c-5.15,-0.17 -10.56,-0.03 -15.7,-0.03 -5.11,0.01 -3.43,-0.16 -9.99,-6.69 -3,-2.98 -5.67,-5.41 -8.46,-8.34l-6.12 -6.21 0 2.65 18.46 18.67 -18.46 -0.07 0 1.8c4.91,-0.17 15.5,0.06 17.29,0.05 3.66,-0.01 2.84,0.14 4.76,2.05 2.35,2.35 4.52,4.42 6.88,6.76l5.27 5.21c0.87,0.8 0.93,1.32 2.31,0.88 0.21,-1.66 -0.54,-1.6 -2.67,-4.02l-10.84 -10.94 17.28 0.07 0 -1.85z"/>
   <g>
    <path class="fil3" d="M141.4 133.43l10.54 0c0.41,0 0.75,0.34 0.75,0.75l0 3.78c0,0.41 -0.34,0.75 -0.75,0.75l-15.5 0c-0.41,0 -0.75,-0.34 -0.75,-0.75l0 -35.61c0,-0.41 0.34,-0.75 0.75,-0.75l4.21 0c0.41,0 0.75,0.34 0.75,0.75l0 31.08zm27.78 -26.55l0 10.4 11 0c0.41,0 0.75,0.34 0.75,0.75l0 3.83c0,0.41 -0.34,0.75 -0.75,0.75l-11 0 0 10.76 12.39 0c0.41,0 0.75,0.34 0.75,0.75l0 3.83c0,0.41 -0.34,0.75 -0.75,0.75l-17.35 0c-0.41,0 -0.75,-0.34 -0.75,-0.75l0 -35.67c0,-0.41 0.34,-0.75 0.75,-0.75l17.35 0c0.41,0 0.75,0.34 0.75,0.75l0 3.83c0,0.41 -0.34,0.75 -0.75,0.75l-12.39 0zm38.38 0l0 31.08c0,0.41 -0.34,0.75 -0.75,0.75l-4.21 0c-0.41,0 -0.75,-0.34 -0.75,-0.75l0 -31.08 -8.09 0c-0.41,0 -0.75,-0.34 -0.75,-0.75l0 -3.78c0,-0.41 0.34,-0.75 0.75,-0.75l21.84 0c0.41,0 0.75,0.34 0.75,0.75l0 3.78c0,0.41 -0.34,0.75 -0.75,0.75l-8.04 0zm21.66 -5.29l4.67 0c0.26,0 0.48,0.12 0.62,0.33 0.14,0.21 0.17,0.46 0.08,0.7l-4.44 11.6c-0.11,0.3 -0.38,0.48 -0.7,0.48l-2.96 0c-0.24,0 -0.44,-0.1 -0.59,-0.29 -0.15,-0.19 -0.2,-0.41 -0.14,-0.64l2.73 -11.6c0.08,-0.34 0.38,-0.58 0.73,-0.58zm27.5 37.48c-2.1,0 -4.16,-0.39 -6.05,-1.33 -1.75,-0.87 -3.2,-2.1 -4.25,-3.74 -1.08,-1.67 -1.57,-3.55 -1.6,-5.53 -0,-0.21 0.07,-0.39 0.22,-0.54 0.15,-0.15 0.33,-0.23 0.54,-0.23l4.49 0c0.39,0 0.71,0.3 0.75,0.68 0.13,1.45 0.66,2.71 1.67,3.76 1.11,1.15 2.7,1.48 4.25,1.48 1.55,0 3.07,-0.35 4.22,-1.45 1.06,-1.01 1.5,-2.27 1.5,-3.72 0,-1.02 -0.21,-2.04 -0.85,-2.85 -0.61,-0.76 -1.36,-1.33 -2.26,-1.72 -1.29,-0.56 -2.68,-1 -4.03,-1.4 -1.75,-0.51 -3.58,-1.1 -5.23,-1.88 -1.47,-0.71 -2.65,-1.8 -3.58,-3.14 -1.15,-1.66 -1.5,-3.74 -1.5,-5.72 0,-1.97 0.44,-3.85 1.45,-5.55 0.98,-1.65 2.36,-2.9 4.08,-3.76 1.84,-0.93 3.86,-1.31 5.91,-1.31 2.93,0 5.68,0.75 7.92,2.69 2.16,1.87 3.27,4.31 3.52,7.15 0.02,0.22 -0.05,0.41 -0.19,0.58 -0.15,0.16 -0.34,0.24 -0.56,0.24l-4.63 0c-0.38,0 -0.7,-0.29 -0.75,-0.67 -0.14,-1.26 -0.77,-2.28 -1.7,-3.13 -1.12,-1.02 -2.55,-1.36 -4.03,-1.36 -1.41,0 -2.73,0.35 -3.8,1.31 -1.06,0.96 -1.42,2.26 -1.42,3.66 0,0.97 0.2,1.93 0.83,2.69 0.59,0.73 1.31,1.27 2.17,1.65 1.29,0.56 2.67,1.01 4.01,1.43 1.76,0.54 3.59,1.15 5.24,1.96 1.48,0.72 2.67,1.81 3.62,3.16 1.18,1.67 1.53,3.77 1.53,5.77 0,1.86 -0.45,3.63 -1.34,5.27 -0.93,1.72 -2.3,3.04 -3.98,4.02 -1.88,1.1 -4,1.53 -6.16,1.53zm-110.24 12.04c3.32,0 6.59,0.63 9.51,2.27 2.73,1.54 4.8,3.73 6.23,6.52 1.56,3.05 2.14,6.44 2.14,9.85 0,3.39 -0.58,6.78 -2.14,9.82 -1.43,2.78 -3.5,4.95 -6.23,6.45 -2.92,1.6 -6.19,2.21 -9.5,2.21l-10.04 0c-0.41,0 -0.75,-0.34 -0.75,-0.75l0 -35.61c0,-0.41 0.34,-0.75 0.75,-0.75l10.04 0zm31.52 22.56l-3.88 0 0 13.81c0,0.41 -0.34,0.75 -0.75,0.75l-4.21 0c-0.41,0 -0.75,-0.34 -0.75,-0.75l0 -35.61c0,-0.41 0.34,-0.75 0.75,-0.75l10.41 0c2.26,0 4.54,0.38 6.54,1.47 1.74,0.95 3.14,2.28 4.07,4.04 0.94,1.77 1.34,3.72 1.34,5.72 0,2.5 -0.64,4.84 -2.05,6.91 -1.3,1.9 -3.13,3.1 -5.27,3.78l7.65 14.09c0.13,0.24 0.12,0.51 -0.02,0.74 -0.14,0.23 -0.37,0.37 -0.65,0.37l-5.04 0c-0.29,0 -0.53,-0.15 -0.67,-0.4l-7.47 -14.16zm37.81 6.64l-12.98 0 -2.42 7.4c-0.1,0.31 -0.38,0.52 -0.72,0.52l-4.44 0c-0.25,0 -0.46,-0.11 -0.61,-0.31 -0.15,-0.2 -0.18,-0.44 -0.11,-0.68l11.66 -35.41c0.1,-0.31 0.38,-0.52 0.72,-0.52l4.86 0c0.33,0 0.61,0.2 0.72,0.52l11.62 35.41c0.08,0.24 0.04,0.48 -0.11,0.68 -0.15,0.2 -0.36,0.31 -0.61,0.31l-4.44 0c-0.33,0 -0.61,-0.2 -0.72,-0.52l-2.42 -7.4zm31.63 -18.57l-7.03 25.94c-0.09,0.33 -0.38,0.55 -0.72,0.56l-4.67 0.05c-0.35,0 -0.65,-0.23 -0.74,-0.57l-9.02 -35.67c-0.06,-0.23 -0.01,-0.46 0.14,-0.65 0.15,-0.19 0.35,-0.29 0.59,-0.29l4.49 0c0.35,0 0.65,0.24 0.73,0.58l6.34 27.21 7.01 -27.22c0.09,-0.34 0.38,-0.57 0.73,-0.57l4.72 0c0.35,0 0.65,0.23 0.73,0.57l6.66 27.06 6.36 -27.05c0.08,-0.34 0.38,-0.58 0.73,-0.58l4.54 0c0.24,0 0.45,0.1 0.6,0.29 0.15,0.19 0.19,0.42 0.13,0.65l-9.35 35.61c-0.09,0.34 -0.38,0.56 -0.73,0.56l-4.72 0c-0.35,0 -0.64,-0.23 -0.73,-0.56l-6.78 -25.93zm-99.2 44.18l0 31.08c0,0.41 -0.34,0.75 -0.75,0.75l-4.21 0c-0.41,0 -0.75,-0.34 -0.75,-0.75l0 -31.08 -8.09 0c-0.41,0 -0.75,-0.34 -0.75,-0.75l0 -3.78c0,-0.41 0.34,-0.75 0.75,-0.75l21.84 0c0.41,0 0.75,0.34 0.75,0.75l0 3.78c0,0.41 -0.34,0.75 -0.75,0.75l-8.04 0zm25.08 0l0 10.4 11 0c0.41,0 0.75,0.34 0.75,0.75l0 3.83c0,0.41 -0.34,0.75 -0.75,0.75l-11 0 0 10.76 12.39 0c0.41,0 0.75,0.34 0.75,0.75l0 3.83c0,0.41 -0.34,0.75 -0.75,0.75l-17.35 0c-0.41,0 -0.75,-0.34 -0.75,-0.75l0 -35.67c0,-0.41 0.34,-0.75 0.75,-0.75l17.35 0c0.41,0 0.75,0.34 0.75,0.75l0 3.83c0,0.41 -0.34,0.75 -0.75,0.75l-12.39 0zm23.35 13.25c0,-3.39 0.66,-6.69 2.21,-9.72 1.43,-2.79 3.43,-5.12 6.07,-6.81 2.61,-1.66 5.48,-2.47 8.57,-2.47 3.51,0 6.78,0.9 9.65,2.95 2.91,2.08 4.84,4.98 6.01,8.34 0.08,0.24 0.05,0.48 -0.1,0.68 -0.15,0.2 -0.36,0.32 -0.61,0.32l-5.04 0c-0.31,0 -0.58,-0.18 -0.69,-0.46 -0.78,-1.86 -1.92,-3.47 -3.6,-4.63 -1.67,-1.15 -3.6,-1.6 -5.61,-1.6 -2.04,0 -3.94,0.51 -5.65,1.62 -1.76,1.14 -3.04,2.74 -3.94,4.62 -1.07,2.23 -1.45,4.71 -1.45,7.16 0,2.44 0.39,4.89 1.45,7.11 0.9,1.89 2.18,3.48 3.94,4.62 1.72,1.11 3.61,1.62 5.65,1.62 2.01,0 3.94,-0.44 5.62,-1.58 1.67,-1.14 2.82,-2.74 3.59,-4.6 0.12,-0.29 0.38,-0.46 0.69,-0.46l5.04 0c0.25,0 0.47,0.11 0.61,0.32 0.15,0.21 0.18,0.45 0.1,0.69 -1.18,3.34 -3.11,6.2 -6.01,8.26 -2.87,2.03 -6.14,2.92 -9.64,2.92 -3.08,0 -5.96,-0.79 -8.57,-2.44 -2.65,-1.67 -4.65,-3.97 -6.08,-6.76 -1.55,-3.02 -2.21,-6.31 -2.21,-9.69zm64.84 2.44l-14.92 0 0 15.39c0,0.41 -0.34,0.75 -0.75,0.75l-4.21 0c-0.41,0 -0.75,-0.34 -0.75,-0.75l0 -35.61c0,-0.41 0.34,-0.75 0.75,-0.75l4.21 0c0.41,0 0.75,0.34 0.75,0.75l0 14.88 14.92 0 0 -14.88c0,-0.41 0.34,-0.75 0.75,-0.75l4.21 0c0.41,0 0.75,0.34 0.75,0.75l0 35.61c0,0.41 -0.34,0.75 -0.75,0.75l-4.21 0c-0.41,0 -0.75,-0.34 -0.75,-0.75l0 -15.39zm-120.11 -65.2l0 26.5 5.08 0c3.37,0 6.65,-0.82 8.97,-3.4 2.39,-2.66 3.09,-6.26 3.09,-9.74 0,-3.53 -0.72,-7.16 -3.12,-9.87 -2.32,-2.61 -5.55,-3.48 -8.95,-3.48l-5.08 0zm32.72 12.03l5.45 0c1.66,0 3.41,-0.35 4.58,-1.62 1.13,-1.24 1.51,-2.83 1.51,-4.47 0,-1.59 -0.34,-3.21 -1.48,-4.38 -1.18,-1.21 -3,-1.51 -4.62,-1.51l-5.45 0 0 11.98zm40 6.59l-4.8 -14.79 -4.8 14.79 9.59 0z"/>
   </g>
   <path class="fil4" d="M140.64 134.18l11.29 0 0 3.78 -15.5 0 0 -35.61 4.21 0 0 31.83zm27.78 -28.05l0 11.91 11.75 0 0 3.83 -11.75 0 0 12.26 13.14 0 0 3.83 -17.35 0 0 -35.67 17.35 0 0 3.83 -13.14 0zm47.17 -3.78l0 3.78 -8.79 0 0 31.83 -4.21 0 0 -31.83 -8.84 0 0 -3.78 21.84 0zm13.62 0l4.67 0 -4.44 11.6 -2.96 0 2.73 -11.6zm27.5 35.97c-2.13,0 -4.03,-0.42 -5.72,-1.25 -1.68,-0.83 -3,-1.99 -3.96,-3.47 -0.96,-1.48 -1.45,-3.19 -1.48,-5.14l4.49 0c0.15,1.67 0.78,3.07 1.87,4.22 1.1,1.14 2.69,1.71 4.79,1.71 2.01,0 3.59,-0.55 4.74,-1.66 1.16,-1.11 1.74,-2.53 1.74,-4.27 0,-1.36 -0.34,-2.47 -1.02,-3.32 -0.68,-0.85 -1.53,-1.5 -2.55,-1.94 -1.02,-0.44 -2.39,-0.92 -4.12,-1.43 -2.13,-0.61 -3.83,-1.23 -5.11,-1.84 -1.28,-0.61 -2.38,-1.58 -3.29,-2.89 -0.91,-1.31 -1.37,-3.07 -1.37,-5.29 0,-1.94 0.45,-3.66 1.34,-5.16 0.89,-1.5 2.15,-2.66 3.77,-3.47 1.62,-0.82 3.48,-1.23 5.58,-1.23 3.02,0 5.5,0.83 7.43,2.5 1.93,1.67 3.02,3.88 3.26,6.64l-4.63 0c-0.15,-1.36 -0.8,-2.56 -1.94,-3.6 -1.14,-1.04 -2.65,-1.56 -4.53,-1.56 -1.76,0 -3.19,0.5 -4.3,1.51 -1.11,1.01 -1.67,2.41 -1.67,4.22 0,1.29 0.33,2.35 0.99,3.17 0.66,0.82 1.48,1.44 2.45,1.86 0.97,0.43 2.34,0.91 4.1,1.46 2.13,0.65 3.84,1.29 5.14,1.92 1.3,0.63 2.41,1.6 3.33,2.91 0.93,1.31 1.39,3.09 1.39,5.34 0,1.74 -0.42,3.37 -1.25,4.91 -0.83,1.53 -2.07,2.78 -3.7,3.73 -1.64,0.95 -3.56,1.43 -5.78,1.43zm-110.24 13.55c3.52,0 6.56,0.72 9.14,2.17 2.58,1.45 4.55,3.52 5.92,6.21 1.37,2.69 2.06,5.86 2.06,9.5 0,3.64 -0.69,6.8 -2.06,9.48 -1.37,2.67 -3.35,4.72 -5.92,6.13 -2.58,1.41 -5.62,2.12 -9.14,2.12l-10.04 0 0 -35.61 10.04 0zm0 31.78c4.17,0 7.34,-1.22 9.53,-3.65 2.19,-2.44 3.29,-5.85 3.29,-10.24 0,-4.43 -1.1,-7.89 -3.31,-10.37 -2.21,-2.49 -5.38,-3.73 -9.51,-3.73l-5.83 0 0 28 5.83 0zm39.66 3.83l-7.68 -14.56 -5.09 0 0 14.56 -4.21 0 0 -35.61 10.41 0c2.44,0 4.5,0.46 6.18,1.38 1.68,0.92 2.94,2.16 3.77,3.73 0.83,1.57 1.25,3.36 1.25,5.37 0,2.45 -0.64,4.62 -1.92,6.49 -1.28,1.87 -3.2,3.12 -5.76,3.73l8.1 14.92 -5.04 0zm-12.77 -18.29l6.2 0c2.28,0 4,-0.62 5.14,-1.86 1.14,-1.24 1.71,-2.9 1.71,-4.98 0,-2.11 -0.56,-3.75 -1.69,-4.91 -1.13,-1.16 -2.85,-1.74 -5.16,-1.74l-6.2 0 0 13.49zm42.99 10.37l-14.07 0 -2.59 7.92 -4.44 0 11.66 -35.41 4.86 0 11.62 35.41 -4.44 0 -2.59 -7.92zm-1.2 -3.78l-5.83 -17.99 -5.83 17.99 11.66 0zm53.87 -23.91l-9.35 35.61 -4.72 0 -7.5 -28.66 -7.77 28.66 -4.67 0.05 -9.02 -35.67 4.49 0 7.03 30.2 7.77 -30.2 4.72 0 7.4 30.1 7.08 -30.1 4.54 0zm-112.74 49.52l0 3.78 -8.79 0 0 31.83 -4.21 0 0 -31.83 -8.84 0 0 -3.78 21.84 0zm16.29 3.78l0 11.91 11.76 0 0 3.83 -11.76 0 0 12.26 13.14 0 0 3.83 -17.35 0 0 -35.67 17.35 0 0 3.83 -13.14 0zm24.85 14c0,-3.47 0.71,-6.6 2.13,-9.38 1.42,-2.78 3.36,-4.95 5.81,-6.52 2.45,-1.57 5.17,-2.35 8.17,-2.35 3.52,0 6.59,0.94 9.21,2.81 2.62,1.87 4.53,4.53 5.74,7.97l-5.04 0c-0.9,-2.15 -2.18,-3.8 -3.86,-4.96 -1.68,-1.16 -3.69,-1.74 -6.04,-1.74 -2.25,0 -4.27,0.58 -6.06,1.74 -1.79,1.16 -3.19,2.8 -4.21,4.93 -1.02,2.13 -1.53,4.62 -1.53,7.49 0,2.83 0.51,5.31 1.53,7.43 1.02,2.13 2.42,3.77 4.21,4.93 1.79,1.16 3.81,1.74 6.06,1.74 2.35,0 4.36,-0.57 6.04,-1.71 1.68,-1.14 2.97,-2.78 3.86,-4.93l5.04 0c-1.2,3.41 -3.12,6.04 -5.74,7.89 -2.62,1.86 -5.69,2.79 -9.21,2.79 -2.99,0 -5.72,-0.77 -8.17,-2.33 -2.45,-1.55 -4.39,-3.7 -5.81,-6.46 -1.42,-2.76 -2.13,-5.88 -2.13,-9.35zm69.05 -17.78l0 35.61 -4.21 0 0 -16.15 -16.43 0 0 16.15 -4.21 0 0 -35.61 4.21 0 0 15.64 16.43 0 0 -15.64 4.21 0z"/>
  </g>
 </g>
</svg>
